<svg version="1.0" xmlns="http://www.w3.org/2000/svg" viewBox="0 0 370 433"><path d="M96.728 342.94 7.48 253.69V196.94c0-31.212.34-56.748.753-56.748.414 0 30.45 29.7 66.747 66 37.024 37.027 66.763 66 67.744 66 1.656 0 1.763-7.156 2.003-133.75l.253-133.75h84l.254 133.25c.24 126.118.347 133.25 2.003 133.25.981 0 30.505-28.759 67.243-65.5 36.022-36.025 65.833-65.5 66.248-65.5.414 0 .752 25.531.752 56.737v56.736l-89.242 89.264c-49.083 49.094-89.472 89.263-89.752 89.263-.28 0-40.671-40.164-89.758-89.252z" fill="#d11b1b" class="fill-000000"></path></svg>